<?xml version="1.0" encoding="UTF-8"?>
<svg id="Capa_1" xmlns="http://www.w3.org/2000/svg" version="1.1" xmlns:serif="http://www.serif.com/" viewBox="0 0 1268.6 281.1">
  <!-- Generator: Adobe Illustrator 29.0.0, SVG Export Plug-In . SVG Version: 2.1.0 Build 186)  -->
  <defs>
    <style>
      .st0 {
        fill: none;
      }

      .st1 {
        fill: #f35120;
      }
    </style>
  </defs>
  <rect class="st0" x="-348.7" y="-320.5" width="1919.9" height="908.6"/>
  <g id="Logo">
    <path class="st1" d="M216.1,182.2c-1.4-2.4-4.5-3.3-6.9-1.9-2.4,1.4-3.3,4.5-1.9,6.9l8.4,14.5c1.5,2.6,4.9,3.4,7.4,1.6,2.2-1.5,2.7-4.6,1.3-6.9l-8.2-14.3ZM223,153.4c-1.4-2.4-4.5-3.3-6.9-1.9-2.4,1.4-3.3,4.5-1.9,6.9l13.1,22.7c1.3,2.3,4.2,3.4,6.6,2.3,2.8-1.3,3.8-4.6,2.3-7.2l-13.2-22.9ZM206.3,214.9c-2.8,1.2-3.9,4.6-2.4,7.2,1.4,2.4,4.5,3.3,6.9,1.9,2.6-1.5,3.4-4.9,1.5-7.4-1.4-1.9-4-2.6-6.1-1.6M259.7,135.7c-1.4-2.4-4.5-3.3-6.9-1.9-2.4,1.4-3.3,4.5-1.9,6.9,1.4,2.4,4.5,3.3,6.9,1.9,2.4-1.4,3.3-4.5,1.9-6.9M76.7,235.5c-2.4,1.4-3.3,4.5-1.9,6.9,1.4,2.4,4.5,3.3,6.9,1.9,2.4-1.4,3.3-4.5,1.9-6.9-1.4-2.4-4.5-3.3-6.9-1.9M183.7,45.2h-99.5l-4.6,8-14.2,24.7,40.8,31.8h-17.1l-14.1-11h-21.5l-18.9,32.7h99.5l4.6-8,14.2-24.7-40.8-31.8h17.1l14.1,11h21.5l18.9-32.7ZM218,104.1l29.9,51.8c1.3,2.3.8,5.3-1.3,6.9-2.5,1.8-5.9,1-7.4-1.6l-36.3-62.8c-1.3-2.3-4.2-3.4-6.6-2.3-2.8,1.3-3.8,4.6-2.3,7.2l20.5,35.5c1.5,2.6.5,5.9-2.3,7.2-2.4,1.1-5.3,0-6.6-2.3l-4.5-7.8c-1.3-2.3-4.2-3.4-6.6-2.3-2.8,1.3-3.8,4.6-2.3,7.2l15.5,26.8c1.5,2.6.5,5.9-2.3,7.2-2.4,1.1-5.3,0-6.6-2.3l-19.4-33.6c-1.5-2.6-4.9-3.4-7.4-1.6-2.2,1.5-2.7,4.6-1.3,6.9l11.9,20.7c1.4,2.4.6,5.5-1.9,6.9h0c-2.4,1.4-5.5.6-6.9-1.9l-3-5.2c-1.5-2.6-4.9-3.4-7.4-1.6-2.2,1.5-2.7,4.6-1.3,6.9l8.2,14.3c1.5,2.6.5,5.9-2.3,7.2-2.4,1.1-5.3.1-6.6-2.2l-3.6-6.3c-1.5-2.6-4.9-3.4-7.4-1.6-2.2,1.5-2.7,4.6-1.3,6.9l19.9,34.5c1.5,2.6.5,5.9-2.3,7.2-2.4,1.1-5.3,0-6.6-2.3l-36.2-62.8c-1.3-2.3-4.2-3.4-6.6-2.3-2.8,1.3-3.8,4.6-2.3,7.2l14.9,25.9c1.5,2.6.5,5.9-2.3,7.2-2.4,1.1-5.3,0-6.6-2.3l-10.1-17.5c-1.5-2.6-4.9-3.4-7.4-1.6-2.2,1.5-2.7,4.6-1.3,6.9l13.9,24c1.5,2.6.5,5.9-2.3,7.2-2.4,1.1-5.3,0-6.6-2.3l-30.3-52.5c-1.5-2.6-4.9-3.4-7.4-1.6-2.2,1.5-2.7,4.6-1.3,6.9l39,67.5c1.5,2.6.5,5.9-2.3,7.2-2.4,1.1-5.3,0-6.6-2.3l-27.2-47.1c-1.5-2.6-4.9-3.4-7.4-1.6-2.2,1.5-2.7,4.6-1.3,6.9l12.9,22.3c1.5,2.6.5,5.9-2.3,7.2-2.4,1.1-5.3,0-6.6-2.3L15.7,139.9c-.6-1-.6-2.3,0-3.3l59.7-103.4c.6-1,1.7-1.7,2.9-1.7h119.4c1.2,0,2.3.6,2.9,1.7l50.7,87.9c1.5,2.6.5,5.9-2.3,7.2-2.4,1.1-5.3,0-6.6-2.3l-15.4-26.7c-1.3-2.3-4.2-3.4-6.6-2.3-2.8,1.3-3.8,4.6-2.3,7.2M124.6,227c-1.4-2.4-4.5-3.3-6.9-1.9-2.4,1.4-3.3,4.5-1.9,6.9l6,10.3c1.5,2.6,4.9,3.4,7.4,1.6,2.2-1.5,2.7-4.6,1.3-6.9l-5.9-10.2ZM138.5,210.3c-1.4-2.4-4.5-3.3-6.9-1.9-2.4,1.4-3.3,4.5-1.9,6.9l15.5,26.9c1.3,2.3,4.2,3.4,6.6,2.3,2.8-1.3,3.8-4.6,2.3-7.2l-15.6-27.1ZM178.8,198.9c-1.4-2.4-4.5-3.3-6.9-1.9-2.4,1.4-3.3,4.5-1.9,6.9l22.1,38.2c1.3,2.3,4.2,3.4,6.6,2.3,2.8-1.3,3.8-4.6,2.3-7.2l-22.2-38.4ZM204.2,202.3l-13.2-22.8c-1.4-2.4-4.5-3.3-6.9-1.9-2.4,1.4-3.3,4.5-1.9,6.9l13.1,22.6c1.3,2.3,4.2,3.4,6.6,2.3,2.8-1.3,3.8-4.6,2.3-7.2M177.5,237.4c1.4,2.4.6,5.5-1.9,6.9-2.4,1.4-5.5.6-6.9-1.9-1.4-2.4-.6-5.5,1.9-6.9,2.4-1.4,5.5-.6,6.9,1.9"/>
    <path class="st1" d="M425.1,145.5c-2.4-2.6-5.3-4.7-8.5-6.4-3.2-1.7-6.7-3.1-10.3-4.2-3.6-1.1-7.4-2-11.2-2.7-3.8-.7-7.5-1.3-11.2-1.8l-5.9-.9c-3.3-.5-6.3-1-9.1-1.4-2.8-.5-5.3-1-7.6-1.5-2.3-.6-4.3-1.2-6.1-2-1.8-.8-3.3-1.7-4.5-2.7-1.2-1-2.1-2.3-2.8-3.7-.6-1.4-.9-3.1-.9-5s.4-4.1,1.2-5.8c.8-1.8,1.8-3.3,3.2-4.7,1.3-1.4,2.9-2.6,4.8-3.6,1.9-1,3.9-1.9,6-2.6,2.2-.7,4.5-1.2,6.9-1.5,2.4-.3,4.8-.5,7.3-.5,4.4,0,8.4.5,12,1.5,3.6,1,6.7,2.5,9.3,4.4,2.6,1.9,4.6,4.3,6,7,1.4,2.7,2.1,5.8,2.1,9.2h22.8c0-6.5-1.2-12.4-3.7-17.7-2.4-5.2-5.9-9.7-10.4-13.3-4.5-3.6-10-6.4-16.4-8.4-6.4-1.9-13.6-2.9-21.5-2.9s-9.6.4-14.1,1.1c-4.5.8-8.7,1.9-12.6,3.4-3.9,1.5-7.5,3.4-10.7,5.6-3.2,2.2-5.9,4.8-8.2,7.8-2.3,2.9-4,6.3-5.3,9.9-1.3,3.7-1.9,7.7-1.9,12.1s.7,8.8,2.1,12.2c1.4,3.4,3.3,6.3,5.8,8.8,2.4,2.4,5.2,4.5,8.4,6,3.2,1.6,6.6,2.9,10.2,3.9,3.6,1,7.3,1.9,11.1,2.5,3.8.6,7.5,1.2,11.1,1.7l7.6,1.1c3,.4,5.8.9,8.4,1.3,2.6.4,5,.9,7.2,1.5,2.2.6,4.2,1.2,5.9,2,1.7.8,3.2,1.7,4.4,2.9,1.2,1.1,2.1,2.5,2.8,4,.6,1.5,1,3.4,1,5.5,0,3.5-.9,6.5-2.6,9-1.7,2.5-4,4.6-6.9,6.3-2.9,1.7-6.3,2.9-10.2,3.7-3.9.8-8,1.2-12.5,1.2s-9.7-.5-13.8-1.6c-4.1-1.1-7.6-2.6-10.5-4.6-2.9-2-5.1-4.5-6.6-7.3-1.6-2.9-2.3-6.2-2.3-9.8h-22.8c0,6.8,1.3,12.9,3.8,18.3,2.5,5.4,6.2,9.9,11,13.6,4.8,3.7,10.7,6.5,17.7,8.5,7,1.9,14.9,2.9,23.8,2.9s15.7-.8,22.5-2.5c6.8-1.7,12.6-4.2,17.4-7.6,4.8-3.4,8.6-7.6,11.2-12.6,2.7-5,4-10.9,4-17.6s-.7-9.2-2.1-12.9c-1.4-3.6-3.3-6.7-5.8-9.3"/>
    <path class="st1" d="M515.7,169.3c-1.2,4-3,7.4-5.2,10.1-2.3,2.8-5.1,4.9-8.4,6.3-3.3,1.4-7,2.2-11.2,2.2s-7.9-.7-11.2-2.2c-3.3-1.5-6.1-3.6-8.4-6.3-2.3-2.8-4.1-6.1-5.3-10.1-1.2-4-1.8-8.5-1.8-13.6s.6-9.6,1.8-13.6c1.2-4,3-7.4,5.3-10.1,2.3-2.8,5.1-4.9,8.4-6.3,3.3-1.4,7-2.2,11.2-2.2s7.9.7,11.2,2.2c3.3,1.4,6.1,3.6,8.4,6.3,2.3,2.8,4,6.1,5.2,10.1,1.2,4,1.8,8.5,1.8,13.6s-.6,9.6-1.8,13.6M533.8,128.3c-2-3.9-4.5-7.3-7.4-10.4-2.9-3-6.2-5.6-9.8-7.7-3.6-2.1-7.6-3.7-12-4.8-4.3-1.1-8.9-1.7-13.8-1.7s-9.5.6-13.8,1.7c-4.3,1.1-8.3,2.7-12,4.8-3.6,2.1-6.9,4.7-9.8,7.7-2.9,3-5.4,6.5-7.4,10.4-2,3.9-3.6,8.1-4.6,12.7-1.1,4.6-1.6,9.5-1.6,14.7s.5,10.1,1.6,14.8c1.1,4.6,2.6,8.8,4.6,12.7,2,3.9,4.5,7.3,7.4,10.4,2.9,3,6.2,5.6,9.8,7.8,3.6,2.1,7.6,3.7,11.9,4.9,4.3,1.1,8.9,1.7,13.8,1.7s9.5-.6,13.8-1.7c4.3-1.1,8.3-2.7,11.9-4.9,3.6-2.1,6.9-4.7,9.8-7.8,2.9-3,5.4-6.5,7.4-10.4,2-3.9,3.6-8.1,4.6-12.7,1.1-4.6,1.6-9.5,1.6-14.8s-.5-10.1-1.6-14.7c-1.1-4.6-2.6-8.8-4.6-12.7"/>
    <path class="st1" d="M580.9,106.7c0-3.2.4-5.9,1.2-8.3.8-2.3,1.9-4.3,3.5-5.9,1.6-1.6,3.6-2.7,6-3.5,2.4-.8,5.2-1.2,8.4-1.2s3.9.1,6.1.4,4.5.6,7,1.1v-18.2c-3-.6-5.8-1-8.6-1.3-2.8-.3-5.5-.4-8.1-.4-6,0-11.3.8-15.9,2.4-4.6,1.6-8.4,4-11.5,7.1-3.1,3.1-5.5,7-7,11.6-1.6,4.6-2.4,10-2.4,16v2.5h-14.2v18.3h14.2v80.5h22.5v-80.5h31.1v-18.3h-32.2v-2.4Z"/>
    <path class="st1" d="M654,86.3h-22.5v22.8h-12.9v18.3h12.9v46.5c0,6.1.7,11.4,2.1,16,1.4,4.6,3.4,8.4,6.1,11.5,2.7,3.1,6,5.4,9.9,6.9,3.9,1.6,8.5,2.3,13.7,2.3s6.4-.3,10-.8c3.5-.6,7.3-1.4,11.3-2.6v-18.2c-3.6.9-6.8,1.6-9.4,2.1-2.7.4-5,.7-6.9.7s-4.6-.4-6.4-1.1c-1.8-.7-3.3-1.8-4.4-3.2-1.2-1.4-2-3.3-2.6-5.5-.6-2.2-.9-4.9-.9-8v-46.5h30.6v-18.3h-30.6v-22.8Z"/>
    <path class="st1" d="M765.3,171.4c-1,2.2-2.4,4.2-3.9,5.9-1.6,1.7-3.4,3.2-5.4,4.3-2,1.2-4.3,2-6.7,2.6-2.5.6-5.1.9-8,.9-4.2,0-7.9-.6-11.2-1.9-3.2-1.3-5.9-3.2-8.1-5.7-2.2-2.5-3.9-5.6-5-9.3-1.1-3.7-1.7-8-1.7-12.9s.6-9.1,1.7-12.8c1.1-3.7,2.8-6.7,5-9.2,2.2-2.5,4.9-4.3,8.2-5.6,3.2-1.2,6.9-1.9,11.2-1.9s5.5.3,8,.9c2.5.6,4.7,1.4,6.7,2.6,2,1.1,3.8,2.5,5.4,4.2,1.6,1.7,2.9,3.6,3.9,5.8,1,2.2,1.8,4.6,2.4,7.3.6,2.7.8,5.6.8,8.7s-.3,6-.8,8.7c-.6,2.7-1.4,5.1-2.4,7.3M768.5,137.3c-1.2-4.7-2.8-8.9-4.8-12.7-2.2-3.9-4.7-7.2-7.8-9.9-3-2.7-6.5-4.8-10.3-6.2s-8-2.2-12.5-2.2-7.6.5-11.2,1.6c-3.5,1.1-6.8,2.6-9.8,4.7-3,2-5.7,4.5-8.1,7.4-2.4,2.9-4.5,6.2-6.1,9.8-1.7,3.6-3,7.6-3.9,11.9-.9,4.3-1.4,8.9-1.4,13.7s.5,9.4,1.4,13.7c.9,4.3,2.2,8.3,3.9,12,1.7,3.7,3.7,7,6.1,9.9,2.4,2.9,5.1,5.4,8.1,7.5,3,2,6.2,3.6,9.8,4.7,3.5,1.1,7.2,1.7,11.2,1.7s8.7-.7,12.5-2.2c3.8-1.4,7.2-3.5,10.3-6.3s5.6-6.1,7.8-10c2.1-3.8,3.7-8.1,4.8-12.8v18.9c0,5.2-.6,9.8-1.8,14-1.2,4.2-3,7.7-5.2,10.7-2.2,2.9-5,5.2-8.2,6.8-3.2,1.6-6.8,2.4-10.8,2.4s-6.2-.5-8.9-1.5c-2.8-1-5.2-2.4-7.2-4.1-2-1.7-3.6-3.8-4.8-6.2-1.2-2.4-1.7-5-1.7-6.6h-22.4c0,2.4.5,5.9,1.5,9.2,1,3.3,2.5,6.4,4.4,9.2,1.9,2.8,4.2,5.3,6.9,7.6,2.7,2.3,5.7,4.2,9.1,5.8,3.3,1.6,7,2.8,10.9,3.7,3.9.9,8.1,1.3,12.4,1.3,7.3,0,14-1.2,20-3.7,6-2.5,11.1-6,15.3-10.6,4.2-4.6,7.5-10.1,9.7-16.5,2.3-6.4,3.4-13.6,3.4-21.5v-83.2h-22.5v28.2Z"/>
    <path class="st1" d="M848.5,111.4c-4,1.5-7.5,3.8-10.4,6.7-3,2.9-5.4,6.4-7.4,10.6-1.9,4-3.3,8.4-4.3,13.3v-32.9h-22.5v98.8h22.5v-47c0-5.2.6-9.7,1.7-13.5,1.1-3.8,2.9-7,5.5-9.5,2.6-2.5,6-4.4,10.3-5.6,4.3-1.2,9.6-1.8,16-1.8h7.4v-21.3h-5.2c-5.1,0-9.6.8-13.6,2.3"/>
    <path class="st1" d="M941.8,181.8c-1.3,1.7-2.9,3.2-4.8,4.5-1.9,1.3-4,2.5-6.3,3.4-2.3.9-4.9,1.7-7.6,2.2-2.7.5-5.6.8-8.7.8s-6.1-.3-8.6-.9c-2.5-.6-4.6-1.4-6.3-2.5-1.7-1.1-3-2.5-3.9-4.1-.9-1.6-1.3-3.5-1.3-5.6s.4-3.8,1.2-5.3c.8-1.5,2-2.8,3.6-3.8,1.6-1,3.5-1.8,5.8-2.3,2.3-.5,5-.8,8.1-.8h33v2.8c0,2.2-.4,4.2-1.1,6.2-.7,2-1.7,3.8-3,5.4M955.8,117.7c-4.1-3.7-9-6.5-14.9-8.4-5.9-1.9-12.5-2.9-20-2.9s-13.5.9-19.2,2.6c-5.7,1.8-10.6,4.3-14.6,7.6-4,3.3-7.1,7.3-9.2,12-2.2,4.7-3.2,9.9-3.2,15.8h22.4c0-2.9.5-5.6,1.4-8,.9-2.4,2.3-4.4,4.3-6,1.9-1.7,4.3-2.9,7.3-3.9,2.9-.9,6.4-1.4,10.4-1.4s7.5.6,10.6,1.7c3.1,1.1,5.8,2.7,8,4.8,2.2,2.1,3.9,4.6,5,7.6,1.2,3,1.7,6.3,1.7,10.1v2.3h-34.3c-6.2,0-11.8.7-16.7,2-4.9,1.3-9.1,3.3-12.5,5.8-3.4,2.6-6,5.7-7.9,9.3-1.8,3.6-2.7,7.8-2.7,12.4s.8,8.4,2.5,12.1c1.7,3.6,4,6.7,7.1,9.3,3,2.6,6.7,4.6,11,6,4.3,1.4,9,2.1,14.3,2.1s6.6-.3,9.6-.9c3-.6,5.9-1.5,8.6-2.6,2.7-1.2,5.1-2.6,7.4-4.3,2.3-1.7,4.3-3.6,6.1-5.8,1.8-2.2,3.3-4.5,4.6-7.1,1.2-2.5,2.2-5.1,2.9-7.9v25.9h22.5v-58.6c0-6.8-1.1-12.8-3.2-18.1-2.2-5.3-5.3-9.8-9.3-13.5"/>
    <path class="st1" d="M1125.8,118.2c-2.7-3.9-6.1-6.8-10.1-8.8-4-2-8.6-3-13.7-3s-8.7.8-12.5,2.4c-3.8,1.6-7.1,3.8-10,6.8-2.9,3-5.3,6.6-7.3,11-1.9,4.1-3.3,8.8-4.2,14.1-.7-5.3-1.8-10-3.4-14.2-1.7-4.3-3.9-8-6.5-11-2.7-3-5.8-5.2-9.4-6.8-3.6-1.5-7.7-2.3-12.1-2.3s-8.3.7-11.9,2.1c-3.6,1.4-6.8,3.5-9.7,6.2-2.8,2.7-5.3,6-7.3,9.9-1.9,3.8-3.4,8-4.4,12.8v-28.3h-22.5v98.8h22.5v-52.6c0-4.6.5-8.7,1.5-12.3,1-3.6,2.5-6.6,4.5-9.1,2-2.5,4.3-4.3,7.1-5.6,2.8-1.3,6-1.9,9.6-1.9s6.3.6,8.8,1.7c2.5,1.2,4.6,2.9,6.3,5.2,1.7,2.3,2.9,5.2,3.8,8.6.8,3.4,1.3,7.4,1.3,12v54.1h22.5v-52.6c0-4.6.5-8.7,1.5-12.3,1-3.6,2.5-6.6,4.5-9.1,2-2.5,4.3-4.3,7.1-5.6,2.8-1.3,6-1.9,9.6-1.9s6.3.6,8.8,1.7c2.5,1.2,4.6,2.9,6.3,5.2,1.7,2.3,2.9,5.2,3.8,8.6.8,3.4,1.3,7.4,1.3,12v54.1h22.5v-56.3c0-7.1-.7-13.5-2.2-19.1-1.4-5.6-3.5-10.4-6.3-14.2"/>
    <path class="st1" d="M1213.9,181.8c-1.3,1.7-2.9,3.2-4.8,4.5-1.9,1.3-4,2.5-6.3,3.4-2.3.9-4.9,1.7-7.6,2.2-2.7.5-5.6.8-8.7.8s-6.1-.3-8.6-.9c-2.5-.6-4.6-1.4-6.3-2.5-1.7-1.1-3-2.5-3.9-4.1-.9-1.6-1.3-3.5-1.3-5.6s.4-3.8,1.2-5.3c.8-1.5,2-2.8,3.6-3.8,1.6-1,3.5-1.8,5.8-2.3,2.3-.5,5-.8,8.1-.8h33v2.8c0,2.2-.4,4.2-1.1,6.2-.7,2-1.7,3.8-3,5.4M1237.3,131.2c-2.2-5.3-5.3-9.8-9.3-13.5-4.1-3.7-9-6.5-14.9-8.4-5.9-1.9-12.5-2.9-20-2.9s-13.5.9-19.2,2.6c-5.7,1.8-10.6,4.3-14.6,7.6-4,3.3-7.1,7.3-9.2,12-2.2,4.7-3.2,9.9-3.2,15.8h22.4c0-2.9.5-5.6,1.4-8,.9-2.4,2.3-4.4,4.3-6,1.9-1.7,4.3-2.9,7.3-3.9,2.9-.9,6.4-1.4,10.4-1.4s7.5.6,10.6,1.7c3.1,1.1,5.8,2.7,8,4.8,2.2,2.1,3.9,4.6,5,7.6,1.2,3,1.7,6.3,1.7,10.1v2.3h-34.3c-6.2,0-11.8.7-16.7,2-4.9,1.3-9.1,3.3-12.5,5.8-3.4,2.6-6,5.7-7.9,9.3-1.8,3.6-2.7,7.8-2.7,12.4s.8,8.4,2.5,12.1c1.7,3.6,4,6.7,7.1,9.3,3,2.6,6.7,4.6,11,6,4.3,1.4,9,2.1,14.3,2.1s6.6-.3,9.6-.9c3-.6,5.9-1.5,8.6-2.6,2.7-1.2,5.1-2.6,7.4-4.3,2.3-1.7,4.3-3.6,6.1-5.8,1.8-2.2,3.3-4.5,4.6-7.1,1.2-2.5,2.2-5.1,2.9-7.9v25.9h22.5v-58.6c0-6.8-1.1-12.8-3.2-18.1"/>
  </g>
</svg>